# xmcd
#
# Track frame offsets:
#	150
#	17883
#	36521
#	50399
#	68090
#	81625
#	109357
#	127067
#
# Disc length: 1869 seconds
#
# Revision: 0
# Processed by: cddbd v1.4PL0 Copyright (c) Steve Scherf et al.
# Submitted via: audiograbber 1.81.01
#
DISCID=76074b08
DTITLE=Dick James Wilson - Pure Blues
DYEAR=2002
DGENRE=Blues
TTITLE0=All That Jazz
TTITLE1=Daylight Comes
TTITLE2=She Like To Boogie
TTITLE3=Put blues on my mind
TTITLE4=Just Groovin
TTITLE5=Time Traveler
TTITLE6=Walk to the River
TTITLE7=My Kathleen My Love (my ciesta)
EXTD=
EXTT0=
EXTT1=
EXTT2=
EXTT3=
EXTT4=
EXTT5=
EXTT6=
EXTT7=
PLAYORDER=
